<mxfile host="app.diagrams.net" agent="Mozilla/5.0 (X11; Linux x86_64; rv:138.0) Gecko/20100101 Firefox/138.0" version="27.0.9">
  <diagram name="Page-1" id="P42xWAX8J8axPG9loAzl">
    <mxGraphModel dx="1426" dy="827" grid="1" gridSize="10" guides="1" tooltips="1" connect="1" arrows="1" fold="1" page="1" pageScale="1" pageWidth="400" pageHeight="480" math="0" shadow="0">
      <root>
        <mxCell id="0" />
        <mxCell id="1" parent="0" />
        <mxCell id="cWS0Tm2aSZtWTQRaVsX_-1" value="&lt;div&gt;&lt;font&gt;User&lt;/font&gt;&lt;/div&gt;&lt;div&gt;&lt;font&gt;(Student)&lt;/font&gt;&lt;/div&gt;" style="rounded=0;whiteSpace=wrap;html=1;fontSize=10;" vertex="1" parent="1">
          <mxGeometry x="165" y="10" width="70" height="30" as="geometry" />
        </mxCell>
        <mxCell id="cWS0Tm2aSZtWTQRaVsX_-2" value="&lt;font&gt;Mobile/ Web Client&lt;/font&gt;" style="rounded=0;whiteSpace=wrap;html=1;fontSize=10;" vertex="1" parent="1">
          <mxGeometry x="165" y="60" width="70" height="30" as="geometry" />
        </mxCell>
        <mxCell id="cWS0Tm2aSZtWTQRaVsX_-3" value="&lt;font&gt;API getaway&lt;/font&gt;" style="rounded=0;whiteSpace=wrap;html=1;fontSize=10;" vertex="1" parent="1">
          <mxGeometry x="165" y="110" width="70" height="30" as="geometry" />
        </mxCell>
        <mxCell id="cWS0Tm2aSZtWTQRaVsX_-4" value="&lt;div align=&quot;center&quot;&gt;&lt;font&gt;Application Logic Layer&lt;/font&gt;&lt;/div&gt;&lt;div align=&quot;center&quot;&gt;&lt;font&gt;&amp;nbsp;(Business Logic, Use Cases, Routing, etc.)&lt;/font&gt;&lt;/div&gt;&lt;div align=&quot;center&quot;&gt;&lt;font&gt;&lt;br&gt;&lt;/font&gt;&lt;/div&gt;&lt;div&gt;&lt;br&gt;&lt;/div&gt;&lt;div&gt;&lt;br&gt;&lt;/div&gt;&lt;div&gt;&lt;br&gt;&lt;/div&gt;&lt;div&gt;&lt;br&gt;&lt;/div&gt;&lt;div&gt;&lt;br&gt;&lt;/div&gt;&lt;div&gt;&lt;br&gt;&lt;/div&gt;&lt;div&gt;&lt;br&gt;&lt;/div&gt;&lt;div&gt;&lt;br&gt;&lt;/div&gt;&lt;div&gt;&lt;br&gt;&lt;/div&gt;&lt;div&gt;&lt;br&gt;&lt;/div&gt;" style="whiteSpace=wrap;html=1;aspect=fixed;align=center;fontSize=10;" vertex="1" parent="1">
          <mxGeometry x="105" y="158" width="190" height="190" as="geometry" />
        </mxCell>
        <mxCell id="cWS0Tm2aSZtWTQRaVsX_-5" value="Gamification" style="rounded=0;whiteSpace=wrap;html=1;fontSize=10;" vertex="1" parent="1">
          <mxGeometry x="120" y="220" width="70" height="30" as="geometry" />
        </mxCell>
        <mxCell id="cWS0Tm2aSZtWTQRaVsX_-6" value="Course Engine" style="rounded=0;whiteSpace=wrap;html=1;fontSize=10;" vertex="1" parent="1">
          <mxGeometry x="210" y="220" width="70" height="30" as="geometry" />
        </mxCell>
        <mxCell id="cWS0Tm2aSZtWTQRaVsX_-7" value="Leaderboards&lt;br&gt;Streak System" style="rounded=0;whiteSpace=wrap;html=1;fontSize=10;" vertex="1" parent="1">
          <mxGeometry x="120" y="290" width="70" height="30" as="geometry" />
        </mxCell>
        <mxCell id="cWS0Tm2aSZtWTQRaVsX_-8" value="&lt;font&gt;Mobile/ Web Client&lt;/font&gt;" style="rounded=0;whiteSpace=wrap;html=1;fontSize=10;" vertex="1" parent="1">
          <mxGeometry x="210" y="290" width="70" height="30" as="geometry" />
        </mxCell>
        <mxCell id="cWS0Tm2aSZtWTQRaVsX_-13" style="edgeStyle=orthogonalEdgeStyle;rounded=0;orthogonalLoop=1;jettySize=auto;html=1;entryX=0.498;entryY=-0.025;entryDx=0;entryDy=0;entryPerimeter=0;endArrow=open;endFill=0;" edge="1" parent="1" source="cWS0Tm2aSZtWTQRaVsX_-1" target="cWS0Tm2aSZtWTQRaVsX_-2">
          <mxGeometry relative="1" as="geometry" />
        </mxCell>
        <mxCell id="cWS0Tm2aSZtWTQRaVsX_-14" style="edgeStyle=orthogonalEdgeStyle;rounded=0;orthogonalLoop=1;jettySize=auto;html=1;entryX=0.491;entryY=-0.033;entryDx=0;entryDy=0;entryPerimeter=0;endArrow=open;endFill=0;" edge="1" parent="1" source="cWS0Tm2aSZtWTQRaVsX_-2" target="cWS0Tm2aSZtWTQRaVsX_-3">
          <mxGeometry relative="1" as="geometry" />
        </mxCell>
        <mxCell id="cWS0Tm2aSZtWTQRaVsX_-16" style="edgeStyle=orthogonalEdgeStyle;shape=connector;rounded=0;orthogonalLoop=1;jettySize=auto;html=1;strokeColor=default;align=center;verticalAlign=middle;fontFamily=Helvetica;fontSize=11;fontColor=default;labelBackgroundColor=default;endArrow=open;endFill=0;" edge="1" parent="1" source="cWS0Tm2aSZtWTQRaVsX_-3">
          <mxGeometry relative="1" as="geometry">
            <mxPoint x="200" y="160" as="targetPoint" />
          </mxGeometry>
        </mxCell>
        <mxCell id="cWS0Tm2aSZtWTQRaVsX_-17" value="&lt;div&gt;&lt;font style=&quot;font-size: 8px;&quot;&gt;Data Layer&lt;/font&gt;&lt;/div&gt;&lt;div&gt;&lt;font style=&quot;font-size: 8px;&quot;&gt;&amp;nbsp;(PostgreSQL / MongoDB etc)&lt;/font&gt;&lt;/div&gt;" style="rounded=0;whiteSpace=wrap;html=1;fontSize=10;" vertex="1" parent="1">
          <mxGeometry x="160" y="370" width="75" height="40" as="geometry" />
        </mxCell>
        <mxCell id="cWS0Tm2aSZtWTQRaVsX_-18" value="&lt;font style=&quot;font-size: 9px;&quot;&gt;AR Engine (ARKit/ARCore)&lt;/font&gt;" style="rounded=0;whiteSpace=wrap;html=1;fontSize=10;" vertex="1" parent="1">
          <mxGeometry x="162.5" y="440" width="70" height="30" as="geometry" />
        </mxCell>
        <mxCell id="cWS0Tm2aSZtWTQRaVsX_-22" style="edgeStyle=orthogonalEdgeStyle;shape=connector;rounded=0;orthogonalLoop=1;jettySize=auto;html=1;entryX=0.529;entryY=-0.036;entryDx=0;entryDy=0;entryPerimeter=0;strokeColor=default;align=center;verticalAlign=middle;fontFamily=Helvetica;fontSize=11;fontColor=default;labelBackgroundColor=default;endArrow=open;endFill=0;" edge="1" parent="1" source="cWS0Tm2aSZtWTQRaVsX_-4" target="cWS0Tm2aSZtWTQRaVsX_-17">
          <mxGeometry relative="1" as="geometry" />
        </mxCell>
        <mxCell id="cWS0Tm2aSZtWTQRaVsX_-23" style="edgeStyle=orthogonalEdgeStyle;shape=connector;rounded=0;orthogonalLoop=1;jettySize=auto;html=1;entryX=0.505;entryY=1.034;entryDx=0;entryDy=0;entryPerimeter=0;strokeColor=default;align=center;verticalAlign=middle;fontFamily=Helvetica;fontSize=11;fontColor=default;labelBackgroundColor=default;endArrow=open;endFill=0;" edge="1" parent="1" source="cWS0Tm2aSZtWTQRaVsX_-18" target="cWS0Tm2aSZtWTQRaVsX_-17">
          <mxGeometry relative="1" as="geometry" />
        </mxCell>
        <mxCell id="cWS0Tm2aSZtWTQRaVsX_-24" value="High Level Design" style="text;html=1;align=center;verticalAlign=middle;resizable=0;points=[];autosize=1;strokeColor=none;fillColor=none;fontFamily=Helvetica;fontSize=11;fontColor=default;labelBackgroundColor=default;" vertex="1" parent="1">
          <mxGeometry x="10" y="10" width="120" height="30" as="geometry" />
        </mxCell>
      </root>
    </mxGraphModel>
  </diagram>
</mxfile>
